inDegrees=no
num_controls=7
num_derivatives=13
num_iterations=125
num_multipliers=7
num_parameters=0
num_slacks=7
num_states=26
objective=0.430573
objective_accelerations=0.050769
objective_balance=0.007021
objective_effort=0.031758
objective_height=0.339950
objective_ligament=0.001074
solver_duration=1583.174146
status=Solve_Succeeded
success=true
DataType=double
version=3
OpenSimVersion=4.5
endheader
time	/jointset/ground_pelvis/pelvis_tilt/value	/jointset/ground_pelvis/pelvis_tx/value	/jointset/ground_pelvis/pelvis_ty/value	/jointset/hip_l/hip_flexion_l/value	/jointset/hip_l/hip_adduction_l/value	/jointset/hip_l/hip_rotation_l/value	/jointset/back/lumbar_extension/value	/jointset/patellofemoral_l/patellar_flexion_l/value	/jointset/knee_l/knee_flexion_l/value	/jointset/knee_l/knee_adduction_l/value	/jointset/knee_l/knee_rotation_l/value	/jointset/ankle_l/ankle_angle_l/value	/jointset/subtalar_l/subtalar_angle_l/value	/jointset/ground_pelvis/pelvis_tilt/speed	/jointset/ground_pelvis/pelvis_tx/speed	/jointset/ground_pelvis/pelvis_ty/speed	/jointset/hip_l/hip_flexion_l/speed	/jointset/hip_l/hip_adduction_l/speed	/jointset/hip_l/hip_rotation_l/speed	/jointset/back/lumbar_extension/speed	/jointset/patellofemoral_l/patellar_flexion_l/speed	/jointset/knee_l/knee_flexion_l/speed	/jointset/knee_l/knee_adduction_l/speed	/jointset/knee_l/knee_rotation_l/speed	/jointset/ankle_l/ankle_angle_l/speed	/jointset/subtalar_l/subtalar_angle_l/speed	/forceset/tau_hip_flexion_l	/forceset/tau_hip_adduction_l	/forceset/tau_hip_rotation_l	/forceset/tau_knee_flexion_l	/forceset/tau_ankle_angle_l	/forceset/tau_subtalar_angle_l	/forceset/tau_lumbar_extension	lambda_cid13_p0	lambda_cid13_p1	lambda_cid13_p2	lambda_cid13_p3	lambda_cid13_p4	lambda_cid13_p5	lambda_cid14_p0	/jointset/ground_pelvis/pelvis_tilt/accel	/jointset/ground_pelvis/pelvis_tx/accel	/jointset/ground_pelvis/pelvis_ty/accel	/jointset/hip_l/hip_flexion_l/accel	/jointset/hip_l/hip_adduction_l/accel	/jointset/hip_l/hip_rotation_l/accel	/jointset/back/lumbar_extension/accel	/jointset/patellofemoral_l/patellar_flexion_l/accel	/jointset/knee_l/knee_flexion_l/accel	/jointset/knee_l/knee_adduction_l/accel	/jointset/knee_l/knee_rotation_l/accel	/jointset/ankle_l/ankle_angle_l/accel	/jointset/subtalar_l/subtalar_angle_l/accel	gamma_cid13_p0	gamma_cid13_p1	gamma_cid13_p2	gamma_cid13_p3	gamma_cid13_p4	gamma_cid13_p5	gamma_cid14_p0
0.5	-0.3381530476559976	-0.03369458629628248	0.7646192997523082	1.176760957494119	-0.3052312897422708	0.009826881888210843	-0.3232040855938706	0.8157181304550627	0.8157181304549135	-0.173366981053015	0.1674564030048215	0.1582541589768855	-0.0208809181489336	-0.4451900644760213	-0.1724759800390101	-0.5165505771592189	2.157322878251771	0.01175839260900497	0.7068325859266552	-0.6283969929832287	2.117274461528961	2.117274461528832	-0.00696891337569937	0.04118237202803136	0.5285700453063346	0.09858112673187167	-0.1888057714012226	0.0181944513271461	-0.026295592216662	-0.2582393727508936	0.1067975423834644	0.03780881805828686	0.1872043681899988	-3.822674370663875	-18.41608601364809	5.577724257374395	-2.707713405111457	-604.0242689201971	-59.31176159978847	-20.57132226737224	0.5118960601745676	0.5762948309736032	-0.4398588687691865	-1.317237284969373	0.7003226474639025	-0.3597994266887367	1.642451973780183	-1.341653494029506	-1.341653494029494	0.0576666423059831	-0.08451260282149317	-0.5535426234612169	0.7174605951546064	-4.258764910295299e-07	-4.336602409878778e-07	2.633659885063242e-06	2.896643789824486e-07	-5.056458741831872e-07	-2.24098912569521e-07	-4.146840324679306e-07
0.51	-0.3425784144777647	-0.0353903506027833	0.7594329017463066	1.19826475677116	-0.3050801983361203	0.01687844954292577	-0.3294056503265106	0.8368203144746618	0.8368203144746966	-0.173437426760635	0.1678636008546593	0.1635108064490378	-0.01986099554414279	-0.4398294183061202	-0.1666648607848271	-0.5206187821453311	2.143155311894979	0.01843278699914614	0.70339501913617	-0.6118480736407124	2.102874144358466	2.102874144358426	-0.007115535768287284	0.04025378172026064	0.5226692073519609	0.1053774254880771	-0.1951171881940267	0.01851674286555693	-0.02635491193074935	-0.2611125135872823	0.1053578712213367	0.03787959071197442	0.1924664451018158	-4.522941806396288	-18.22244943813396	5.430616364579492	-2.42388799747142	-608.4416527411096	-58.99666358129662	-19.27636897418451	0.5561963423304771	0.5853802448191824	-0.3738622137017861	-1.50881317770671	0.6465917164773296	-0.3489813264661286	1.671293900085191	-1.532370083498556	-1.532370083485168	-0.05009734254965802	-0.0980537245695725	-0.6218729405892005	0.6565818796834303	-3.942655611139183e-07	-3.462418695195879e-07	2.517212170607996e-06	2.832090128627022e-07	-4.70999155526669e-07	-1.374746172949112e-07	-3.903661868355194e-07
0.52	-0.3469485653484457	-0.03702763176230658	0.7542091095104101	1.219618421011297	-0.3048632442097306	0.02389299232548826	-0.3354396894686058	0.8577698654715681	0.8577698654717881	-0.1735091928246827	0.1682613085054568	0.1687057418298136	-0.01877393647902394	-0.4341468742589172	-0.1607793506435024	-0.524029423138222	2.127295870871282	0.02493093665681094	0.6994276114961764	-0.5948918748742834	2.086747856990411	2.08674785699046	-0.007232984661214227	0.03928433221990181	0.5162276270310376	0.1120084187974791	-0.2014286049868322	0.01883903440396875	-0.02641423164483522	-0.2639856544236707	0.1039182000592098	0.03795036336566326	0.1977285220136311	-5.228665940269677	-18.02951793276602	5.285519466963491	-2.152982236524955	-612.9653929752378	-58.76563811115876	-17.98069201398762	0.5762756356349046	0.591173008401944	-0.3083460701249418	-1.655612218350509	0.6650737009686269	-0.4657675965904017	1.723907858562703	-1.686847533541417	-1.686847533541417	0.06350134223817433	-0.09268444133911102	-0.6616910967711042	0.6843995057939091	-3.65414317475229e-07	-2.357788806894674e-07	2.419137418042873e-06	2.826137592223848e-07	-4.408475524176112e-07	-4.730857130217413e-08	-3.663568538342788e-07
0.53	-0.3512604192579486	-0.03860572034314648	0.7489545398507973	1.240805261565766	-0.3045820726143189	0.03086527645174951	-0.3413021644029345	0.8785497236542735	0.8785497236544058	-0.1735817224157277	0.1686490397249006	0.1738337473125907	-0.01762125107201002	-0.4281764625514146	-0.1548287032712087	-0.5267694005274789	2.109796534326518	0.03126990473220861	0.6949436484506157	-0.5775455083911579	2.068946141858822	2.068946141858889	-0.007268796080064508	0.03826167775896739	0.5092954158105061	0.1184960546616635	-0.2075402640184374	0.01896541410351883	-0.02642812832207842	-0.2671038325769348	0.1028660598398175	0.03783070812659871	0.2028282996834265	-5.816666661327296	-17.76695151206078	5.120701254239989	-1.954818847042079	-617.516647791942	-58.45591829315198	-16.68759352794341	0.6145130194779622	0.5985163998535999	-0.2396423368691865	-1.838488974691397	0.612954345316249	-0.4528518703767277	1.748641583224832	-1.868408407567738	-1.868408407565158	-0.03646112017107315	-0.1075623587786005	-0.720669865746279	0.6258045306224832	-3.361010073973621e-07	-1.332389643265261e-07	2.313612588595429e-06	2.803355086584047e-07	-4.108418923393048e-07	3.603048809119904e-08	-3.418774088755827e-07
